<?xml version="1.0" encoding="UTF-8" standalone="no"?>
<!-- Created with Inkscape (http://www.inkscape.org/) -->

<svg
   width="73.789627mm"
   height="77.776924mm"
   viewBox="0 0 73.789627 77.776924"
   version="1.1"
   id="svg1"
   xmlns="http://www.w3.org/2000/svg"
   xmlns:svg="http://www.w3.org/2000/svg">
  <defs
     id="defs1">
    <clipPath
       clipPathUnits="userSpaceOnUse"
       id="clipPath14">
      <path
         d="M 0,841.89 H 595.276 V 0 H 0 Z"
         transform="translate(-287.7388,-428.47181)"
         id="path14" />
    </clipPath>
    <clipPath
       clipPathUnits="userSpaceOnUse"
       id="clipPath16">
      <path
         d="M 0,841.89 H 595.276 V 0 H 0 Z"
         transform="translate(-291.18211,-437.37021)"
         id="path16" />
    </clipPath>
  </defs>
  <g
     id="layer1"
     transform="translate(-64.132464,-23.343099)">
    <path
       id="path13"
       d="m 0,0 0.379,1.455 c 0.318,1.318 0.962,2.535 1.915,3.613 0.849,0.962 1.972,1.845 3.335,2.626 2.292,1.24 6.956,2.973 9.977,3.473 h 0.003 c 0.049,0 0.087,-0.031 0.087,-0.079 V 8.746 C 15.696,8.709 15.669,8.677 15.633,8.669 14.89,8.514 14.177,8.351 13.499,8.177 L 13.272,8.119 C 12.271,7.862 11.548,7.677 9.439,6.895 6.581,5.769 4.583,4.38 3.5,2.766 L 3.224,2.356 h 12.615 l -0.275,0.41 c -0.88,1.308 -2.363,2.472 -4.418,3.464 0.893,0.319 2.652,0.893 3.064,0.99 1.021,-0.66 1.88,-1.384 2.558,-2.151 0.952,-1.078 1.596,-2.294 1.915,-3.614 L 19.034,0 Z"
       style="fill:#b3835a;fill-opacity:1;fill-rule:nonzero;stroke:none"
       transform="matrix(3.8707685,0,0,-3.8707685,64.132464,101.12002)"
       clip-path="url(#clipPath14)" />
    <path
       id="path15"
       d="m 0,0 c -0.037,0 -0.077,0.03 -0.077,0.079 v 2.342 c 0,0.037 0.026,0.069 0.064,0.077 0.742,0.155 1.455,0.319 2.134,0.492 l 0.227,0.058 c 1,0.257 1.723,0.442 3.832,1.224 2.859,1.126 4.857,2.515 5.941,4.13 l 0.275,0.41 H -0.219 L 0.056,8.402 C 0.934,7.093 2.418,5.93 4.473,4.937 3.582,4.619 1.822,4.045 1.409,3.947 0.389,4.607 -0.472,5.331 -1.149,6.098 -2.102,7.177 -2.746,8.394 -3.064,9.713 L -3.421,11.195 15.62,11.167 15.24,9.713 C 14.92,8.392 14.277,7.176 13.325,6.099 12.477,5.138 11.355,4.255 9.99,3.473 7.7,2.233 3.036,0.501 0.013,0 Z"
       style="fill:#b3835a;fill-opacity:1;fill-rule:nonzero;stroke:none"
       transform="matrix(3.8707685,0,0,-3.8707685,77.460688,66.676352)"
       clip-path="url(#clipPath16)" />
  </g>
</svg>
