<svg width="175" height="160" viewBox="0 0 175 160" fill="none" xmlns="http://www.w3.org/2000/svg">
<mask id="mask0_0_6" style="mask-type:alpha" maskUnits="userSpaceOnUse" x="0" y="0" width="175" height="160">
<path fill-rule="evenodd" clip-rule="evenodd" d="M0 0H174.328V160H0V0Z" fill="white"/>
</mask>
<g mask="url(#mask0_0_6)">
<path fill-rule="evenodd" clip-rule="evenodd" d="M28.6578 81.4816L23.8873 70.7956H19.2222L26.7252 86.6777H30.4324L38.3544 70.7956H33.924L28.6578 81.4816ZM11.5253 78.7046L18.1637 70.734H13.2783L9.08257 75.7737L4.88445 70.734H-0.000976562L6.63985 78.7046L-0.000976562 86.6753H4.88445L9.08257 81.638L13.2783 86.6753H18.1637L11.5253 78.7046ZM40.323 86.6777H44.454V70.734H40.323V86.6777ZM142.44 70.734L138.242 75.7737L134.044 70.734H129.159L135.797 78.7046L129.159 86.6753H134.044L138.242 81.638L142.44 86.6753H147.323L140.683 78.7046L147.323 70.734H142.44ZM162.351 70.734L158.153 75.7737L153.955 70.734H149.069L155.71 78.7046L149.069 86.6753H153.955L158.153 81.638L162.351 86.6753H167.234L160.596 78.7046L167.234 70.734H162.351ZM170.196 86.6777H174.332V70.734H170.196V86.6777ZM142.11 42.493L152.173 35.9487L157.276 43.6303L159.774 42.0072L152.695 31.3544L140.134 39.5217L142.11 42.493ZM130.569 25.5635L142.85 20.5025L139.38 18.0454L130.586 22.1161L131.439 12.4086L127.988 9.95862L127.463 22.4881C127.451 22.7961 127.384 23.0425 127.272 23.1941C126.979 23.5969 126.316 23.6301 125.049 22.7274L124.47 22.3151L122.812 24.6016L123.96 25.4119C126.055 26.8975 126.951 27.0586 130.569 25.5635ZM102.571 10.769L105.227 11.3945C107.102 11.8305 108.214 11.648 109.322 11.2926L107.735 17.9246L111.231 18.742L114.694 4.27678L111.198 3.45697L110.07 8.16972C109.188 8.97295 108.274 9.06773 106.504 8.65071L104.039 8.07731C102.164 7.6366 101.53 6.84996 102.013 4.82649L102.811 1.49036L99.3145 0.672912L98.426 4.38341C97.5878 7.88065 98.8834 9.90413 102.571 10.769ZM68.4022 14.4866L68.8644 17.4009L70.3612 17.1687C73.0122 16.7588 74.3222 14.9533 73.7283 11.186L72.7105 4.75777L81.0444 3.46644L82.9052 15.2258L86.4543 14.6761L84.1338 0L68.7016 2.38836L70.1169 11.3376C70.4546 13.4725 70.2175 14.2022 68.4022 14.4866ZM46.6213 21.5427L46.0921 15.304L46.2382 15.2116L51.6648 18.3321L46.6213 21.5427ZM61.644 19.7751L46.8656 11.5011L42.3801 14.3515L43.8122 31.1269L47.3446 28.8784L46.9351 24.6798L54.4213 19.9149L58.0925 22.0379L61.644 19.7751ZM25.8607 43.8198L29.4194 38.619C30.4659 37.0978 31.0215 37.2353 31.9746 37.875C33.0691 38.6048 33.2822 39.0597 32.1997 40.6425L28.7105 45.732L25.8607 43.8198ZM34.9155 41.9433C36.9199 39.0171 37.1642 37.0552 34.027 34.9535C30.8539 32.8258 29.0601 33.8754 27.0676 36.7827L23.3868 42.1589L21.0902 40.6235L26.9814 32.0202L24.6321 30.4422L16.722 41.993L29.1703 50.3357L34.9155 41.9433ZM157.18 112.454L153.866 110.419L148.971 118.222L151.174 119.572L154.225 114.717L155.55 115.528C156.445 116.084 156.584 116.731 155.66 118.203L152.626 123.043C151.402 124.996 150.767 125.171 149.081 124.136L145.93 122.202C144.064 121.053 143.896 120.091 145.012 118.319L147.74 113.973C148.849 112.201 149.601 111.876 150.552 112.459L152.398 109.516C149.297 107.614 147.611 108.716 145.745 111.692L142.038 117.596C140.024 120.809 140.371 122.863 143.705 124.913L147.522 127.254C150.535 129.107 152.729 128.337 154.616 125.325L158.356 119.368C160.346 116.193 160.174 114.293 157.18 112.454ZM135.421 126.446L132.662 128.583L138.259 135.658C139.492 137.217 139.248 138.231 137.883 139.286L134.08 142.236C132.595 143.382 131.573 143.406 130.32 141.828L124.712 134.739L121.953 136.876L127.77 144.228C129.959 146.991 132.349 147.237 135.258 144.984L140.331 141.056C143.305 138.75 143.621 136.812 141.241 133.798L135.421 126.446ZM113.283 140.74L115.053 146.01L106.463 148.834L104.693 143.567L101.369 144.66L105.989 158.404L109.315 157.312L107.385 151.569L115.97 148.747L117.903 154.488L121.225 153.393L116.607 139.643L113.283 140.74ZM84.5864 148.107L89.0767 148.204C91.1027 148.247 91.8714 148.913 91.8355 150.431L95.3391 150.51C95.4277 146.441 93.2748 145.413 89.8167 145.34L83.9925 145.214C79.6938 145.122 78.2952 146.285 78.2018 150.514L78.1132 154.628C78.027 158.511 79.289 159.769 83.3387 159.852L89.8574 159.997C94.1776 160.089 95.1547 158.959 95.2601 155.099L91.7373 155.026C91.6966 156.774 90.9734 157.137 88.8827 157.089L84.39 156.997C82.3879 156.957 81.5737 156.521 81.6216 154.303L81.7006 150.718C81.7509 148.446 82.2442 148.057 84.5864 148.107ZM63.773 140.804L60.4706 139.639L55.5516 153.296L67.3868 157.464L68.3639 154.748L59.8335 151.744L63.773 140.804ZM45.9268 133.58L44.6959 139.513L40.1314 135.9L45.7927 133.478L45.9268 133.58ZM30.3102 136.307L33.5097 138.838L37.2983 137.163L44.0732 142.522L43.2351 146.538L46.4489 149.083L49.5837 133.002L45.5293 129.791L30.3102 136.307ZM28.3441 119.16L24.6561 113.085L27.3742 111.469L31.0502 117.527C31.5507 118.352 31.3089 119.058 30.5497 119.508C29.7163 120.003 28.8326 119.966 28.3441 119.16ZM25.7337 123.024C24.6297 123.683 24.1364 123.683 23.1713 122.086L19.5479 116.12L22.4265 114.407L26.1145 120.484C27.0485 122.025 26.6988 122.456 25.7337 123.024ZM32.8272 122.202C35.1454 120.826 35.0544 118.805 33.3804 116.047L27.9418 107.088L15.369 114.551L21.1764 124.126C22.8863 126.936 24.6992 127.69 27.3957 126.088C29.3715 124.913 29.4337 123.802 29.1032 122.316C30.0372 123.126 30.7988 123.408 32.8272 122.202ZM59.345 47.374L60.437 51.8521C61.4069 55.8399 63.3755 59.5148 66.2852 62.7727C68.3495 65.09 70.9766 67.277 74.0947 69.272C75.3544 68.9782 80.7259 67.2414 83.4488 66.2795C77.1768 63.2822 72.6434 59.766 69.9636 55.8114L69.123 54.577H107.641L106.801 55.8162C103.489 60.6924 97.3891 64.8863 88.66 68.2887C82.2227 70.6534 80.0147 71.2126 76.9589 71.985L76.2668 72.1627C74.1977 72.6863 72.016 73.1792 69.7505 73.6483C69.6355 73.6744 69.5565 73.7692 69.5565 73.8829V80.9579C69.5565 81.1049 69.6786 81.1973 69.7912 81.1973L69.8295 81.1949C79.0544 79.6832 93.2987 74.4468 100.294 70.7032C104.459 68.3432 107.888 65.6729 110.479 62.7727C113.386 59.5148 115.353 55.8422 116.325 51.8521L117.486 47.4593L59.345 47.374ZM88.0996 87.2511C94.5297 84.8864 96.7353 84.3272 99.7863 83.5525L100.495 83.3724C102.567 82.8511 104.744 82.3583 107.014 81.8891C107.124 81.8654 107.205 81.7683 107.205 81.6569V74.5819C107.205 74.4326 107.088 74.3426 106.94 74.3426H106.932C97.7028 75.8542 83.4632 81.0883 76.4679 84.8319C72.2962 87.1966 68.8692 89.8669 66.2852 92.7671C63.3755 96.0226 61.4069 99.6952 60.437 103.685L59.2779 108.078H117.398L116.325 103.685C115.353 99.6952 113.386 96.0227 110.479 92.7647C108.408 90.4427 105.781 88.2557 102.667 86.2678C101.41 86.564 96.036 88.2936 93.3131 89.2556C99.5851 92.2553 104.119 95.7715 106.801 99.7237L107.641 100.963H69.1207L69.9636 99.7237C73.2709 94.8498 79.3681 90.6536 88.0996 87.2511Z" fill="#97734F"/>
</g>
</svg>
